<svg width="4248" height="3787" viewBox="0 0 4248 3787" fill="none" xmlns="http://www.w3.org/2000/svg">
<g clip-path="url(#clip0_20_13)">
<path d="M1032.69 3431.32C967.587 3431.32 920.387 3425.63 891.09 3414.23C861.793 3401.21 847.145 3382.5 847.145 3358.08C847.145 3346.69 851.214 3327.16 859.352 3299.49L1887.18 445.484C1903.46 398.284 1961.24 374.684 2060.52 374.684H2187.48C2286.76 374.684 2344.54 398.284 2360.82 445.484L3388.65 3301.93C3396.79 3319.83 3400.86 3338.55 3400.86 3358.08C3400.86 3406.91 3339.82 3431.32 3217.75 3431.32H3181.13C3080.22 3431.32 3021.62 3408.54 3005.35 3362.96L2751.44 2650.07H1477.03L1228 3362.96C1213.36 3408.54 1155.58 3431.32 1054.66 3431.32H1032.69ZM2634.25 2320.48L2180.15 1028.98C2167.13 993.173 2156.55 952.483 2148.41 906.91C2140.28 861.337 2132.95 817.392 2126.44 775.074H2116.68C2097.14 884.124 2075.17 968.759 2050.76 1028.98L1596.66 2320.48H2634.25Z" fill="#FC6A00"/>
</g>
<defs>
<clipPath id="clip0_20_13">
<rect width="4248" height="3787" fill="white"/>
</clipPath>
</defs>
</svg>
